<mxfile host="Electron" modified="2023-08-06T10:23:29.172Z" agent="Mozilla/5.0 (Windows NT 10.0; Win64; x64) AppleWebKit/537.36 (KHTML, like Gecko) draw.io/21.6.5 Chrome/114.0.5735.243 Electron/25.3.1 Safari/537.36" etag="EjjTkv_5u_b-BFs4wMMU" version="21.6.5" type="device" pages="2">
  <diagram name="ChucNang" id="HALrVWDM0TCD7h0ea4Bh">
    <mxGraphModel dx="1480" dy="929" grid="1" gridSize="10" guides="1" tooltips="1" connect="1" arrows="1" fold="1" page="1" pageScale="1" pageWidth="827" pageHeight="1169" math="0" shadow="0">
      <root>
        <mxCell id="0" />
        <mxCell id="1" parent="0" />
        <mxCell id="uV9i0jkfCxJ6CP1BGoNx-70" style="edgeStyle=orthogonalEdgeStyle;rounded=0;orthogonalLoop=1;jettySize=auto;html=1;endArrow=none;endFill=0;" parent="1" source="uV9i0jkfCxJ6CP1BGoNx-29" edge="1">
          <mxGeometry relative="1" as="geometry">
            <mxPoint x="1100" y="600" as="targetPoint" />
          </mxGeometry>
        </mxCell>
        <mxCell id="uV9i0jkfCxJ6CP1BGoNx-29" value="Phần mềm quản lý hóa đơn khách sạn" style="rounded=0;whiteSpace=wrap;html=1;" parent="1" vertex="1">
          <mxGeometry x="1040" y="450" width="120" height="60" as="geometry" />
        </mxCell>
        <mxCell id="uV9i0jkfCxJ6CP1BGoNx-48" style="edgeStyle=orthogonalEdgeStyle;rounded=0;orthogonalLoop=1;jettySize=auto;html=1;" parent="1" source="uV9i0jkfCxJ6CP1BGoNx-33" target="uV9i0jkfCxJ6CP1BGoNx-37" edge="1">
          <mxGeometry relative="1" as="geometry">
            <mxPoint x="490" y="690" as="targetPoint" />
            <Array as="points">
              <mxPoint x="530" y="690" />
              <mxPoint x="530" y="780" />
            </Array>
          </mxGeometry>
        </mxCell>
        <mxCell id="uV9i0jkfCxJ6CP1BGoNx-49" style="edgeStyle=orthogonalEdgeStyle;rounded=0;orthogonalLoop=1;jettySize=auto;html=1;" parent="1" source="uV9i0jkfCxJ6CP1BGoNx-33" target="uV9i0jkfCxJ6CP1BGoNx-38" edge="1">
          <mxGeometry relative="1" as="geometry">
            <Array as="points">
              <mxPoint x="530" y="690" />
              <mxPoint x="530" y="870" />
            </Array>
          </mxGeometry>
        </mxCell>
        <mxCell id="uV9i0jkfCxJ6CP1BGoNx-50" style="edgeStyle=orthogonalEdgeStyle;rounded=0;orthogonalLoop=1;jettySize=auto;html=1;" parent="1" source="uV9i0jkfCxJ6CP1BGoNx-33" target="uV9i0jkfCxJ6CP1BGoNx-39" edge="1">
          <mxGeometry relative="1" as="geometry">
            <Array as="points">
              <mxPoint x="530" y="690" />
              <mxPoint x="530" y="960" />
            </Array>
          </mxGeometry>
        </mxCell>
        <mxCell id="uV9i0jkfCxJ6CP1BGoNx-33" value="Quản lý hóa đơn" style="rounded=0;whiteSpace=wrap;html=1;" parent="1" vertex="1">
          <mxGeometry x="575" y="660" width="120" height="60" as="geometry" />
        </mxCell>
        <mxCell id="uV9i0jkfCxJ6CP1BGoNx-51" style="edgeStyle=orthogonalEdgeStyle;rounded=0;orthogonalLoop=1;jettySize=auto;html=1;" parent="1" source="uV9i0jkfCxJ6CP1BGoNx-34" target="uV9i0jkfCxJ6CP1BGoNx-40" edge="1">
          <mxGeometry relative="1" as="geometry">
            <mxPoint x="750" y="780" as="targetPoint" />
            <Array as="points">
              <mxPoint x="760" y="690" />
              <mxPoint x="760" y="780" />
            </Array>
          </mxGeometry>
        </mxCell>
        <mxCell id="uV9i0jkfCxJ6CP1BGoNx-34" value="Tìm hóa đơn" style="rounded=0;whiteSpace=wrap;html=1;" parent="1" vertex="1">
          <mxGeometry x="785" y="660" width="120" height="60" as="geometry" />
        </mxCell>
        <mxCell id="uV9i0jkfCxJ6CP1BGoNx-67" style="edgeStyle=orthogonalEdgeStyle;rounded=0;orthogonalLoop=1;jettySize=auto;html=1;" parent="1" source="uV9i0jkfCxJ6CP1BGoNx-35" target="uV9i0jkfCxJ6CP1BGoNx-66" edge="1">
          <mxGeometry relative="1" as="geometry">
            <Array as="points">
              <mxPoint x="1010" y="700" />
              <mxPoint x="1010" y="780" />
            </Array>
          </mxGeometry>
        </mxCell>
        <mxCell id="uV9i0jkfCxJ6CP1BGoNx-35" value="Tính trung bình thành tiền trong 1 tháng" style="rounded=0;whiteSpace=wrap;html=1;" parent="1" vertex="1">
          <mxGeometry x="1040" y="660" width="120" height="60" as="geometry" />
        </mxCell>
        <mxCell id="uV9i0jkfCxJ6CP1BGoNx-56" style="edgeStyle=orthogonalEdgeStyle;rounded=0;orthogonalLoop=1;jettySize=auto;html=1;" parent="1" source="uV9i0jkfCxJ6CP1BGoNx-36" target="uV9i0jkfCxJ6CP1BGoNx-54" edge="1">
          <mxGeometry relative="1" as="geometry">
            <Array as="points">
              <mxPoint x="1241" y="700" />
              <mxPoint x="1241" y="780" />
            </Array>
          </mxGeometry>
        </mxCell>
        <mxCell id="uV9i0jkfCxJ6CP1BGoNx-57" style="edgeStyle=orthogonalEdgeStyle;rounded=0;orthogonalLoop=1;jettySize=auto;html=1;" parent="1" source="uV9i0jkfCxJ6CP1BGoNx-36" target="uV9i0jkfCxJ6CP1BGoNx-55" edge="1">
          <mxGeometry relative="1" as="geometry">
            <Array as="points">
              <mxPoint x="1241" y="700" />
              <mxPoint x="1241" y="930" />
            </Array>
          </mxGeometry>
        </mxCell>
        <mxCell id="uV9i0jkfCxJ6CP1BGoNx-36" value="Tính tổng số lượng hóa đơn theo từng loại trong một tháng" style="rounded=0;whiteSpace=wrap;html=1;" parent="1" vertex="1">
          <mxGeometry x="1276" y="660" width="120" height="60" as="geometry" />
        </mxCell>
        <mxCell id="uV9i0jkfCxJ6CP1BGoNx-37" value="Thêm hóa đơn" style="rounded=0;whiteSpace=wrap;html=1;" parent="1" vertex="1">
          <mxGeometry x="600" y="760" width="95" height="40" as="geometry" />
        </mxCell>
        <mxCell id="uV9i0jkfCxJ6CP1BGoNx-38" value="Xóa hóa đơn" style="rounded=0;whiteSpace=wrap;html=1;" parent="1" vertex="1">
          <mxGeometry x="600" y="850" width="95" height="40" as="geometry" />
        </mxCell>
        <mxCell id="uV9i0jkfCxJ6CP1BGoNx-39" value="Sửa hóa đơn" style="rounded=0;whiteSpace=wrap;html=1;" parent="1" vertex="1">
          <mxGeometry x="600" y="940" width="95" height="40" as="geometry" />
        </mxCell>
        <mxCell id="uV9i0jkfCxJ6CP1BGoNx-40" value="Tìm hóa đơn theo tên khách hàng" style="rounded=0;whiteSpace=wrap;html=1;" parent="1" vertex="1">
          <mxGeometry x="800" y="760" width="105" height="40" as="geometry" />
        </mxCell>
        <mxCell id="uV9i0jkfCxJ6CP1BGoNx-52" value="Undo/Redo" style="rounded=0;whiteSpace=wrap;html=1;" parent="1" vertex="1">
          <mxGeometry x="1510" y="660" width="120" height="60" as="geometry" />
        </mxCell>
        <mxCell id="uV9i0jkfCxJ6CP1BGoNx-63" value="" style="edgeStyle=orthogonalEdgeStyle;rounded=0;orthogonalLoop=1;jettySize=auto;html=1;" parent="1" source="uV9i0jkfCxJ6CP1BGoNx-54" target="uV9i0jkfCxJ6CP1BGoNx-59" edge="1">
          <mxGeometry relative="1" as="geometry">
            <Array as="points">
              <mxPoint x="1344" y="840" />
            </Array>
          </mxGeometry>
        </mxCell>
        <mxCell id="uV9i0jkfCxJ6CP1BGoNx-54" value="Hóa đơn theo ngày" style="rounded=0;whiteSpace=wrap;html=1;" parent="1" vertex="1">
          <mxGeometry x="1291" y="760" width="105" height="40" as="geometry" />
        </mxCell>
        <mxCell id="uV9i0jkfCxJ6CP1BGoNx-65" style="edgeStyle=orthogonalEdgeStyle;rounded=0;orthogonalLoop=1;jettySize=auto;html=1;" parent="1" source="uV9i0jkfCxJ6CP1BGoNx-55" target="uV9i0jkfCxJ6CP1BGoNx-64" edge="1">
          <mxGeometry relative="1" as="geometry">
            <Array as="points">
              <mxPoint x="1336" y="990" />
            </Array>
          </mxGeometry>
        </mxCell>
        <mxCell id="uV9i0jkfCxJ6CP1BGoNx-55" value="Hóa đơn theo giờ" style="rounded=0;whiteSpace=wrap;html=1;" parent="1" vertex="1">
          <mxGeometry x="1291" y="910" width="105" height="40" as="geometry" />
        </mxCell>
        <mxCell id="uV9i0jkfCxJ6CP1BGoNx-59" value="Hóa đơn theo tháng và năm" style="rounded=0;whiteSpace=wrap;html=1;" parent="1" vertex="1">
          <mxGeometry x="1376" y="820" width="80" height="40" as="geometry" />
        </mxCell>
        <mxCell id="uV9i0jkfCxJ6CP1BGoNx-64" value="Hóa đơn theo tháng và năm" style="rounded=0;whiteSpace=wrap;html=1;" parent="1" vertex="1">
          <mxGeometry x="1376" y="970" width="80" height="40" as="geometry" />
        </mxCell>
        <mxCell id="uV9i0jkfCxJ6CP1BGoNx-66" value="Hóa đơn theo tháng và năm" style="rounded=0;whiteSpace=wrap;html=1;" parent="1" vertex="1">
          <mxGeometry x="1055" y="760" width="105" height="40" as="geometry" />
        </mxCell>
        <mxCell id="uV9i0jkfCxJ6CP1BGoNx-69" value="" style="endArrow=none;html=1;rounded=0;" parent="1" edge="1">
          <mxGeometry width="50" height="50" relative="1" as="geometry">
            <mxPoint x="640" y="600" as="sourcePoint" />
            <mxPoint x="1570" y="600" as="targetPoint" />
          </mxGeometry>
        </mxCell>
        <mxCell id="uV9i0jkfCxJ6CP1BGoNx-71" style="edgeStyle=orthogonalEdgeStyle;rounded=0;orthogonalLoop=1;jettySize=auto;html=1;entryX=0.5;entryY=0;entryDx=0;entryDy=0;" parent="1" target="uV9i0jkfCxJ6CP1BGoNx-33" edge="1">
          <mxGeometry relative="1" as="geometry">
            <mxPoint x="730" y="840" as="targetPoint" />
            <mxPoint x="640" y="600" as="sourcePoint" />
            <Array as="points">
              <mxPoint x="635" y="600" />
            </Array>
          </mxGeometry>
        </mxCell>
        <mxCell id="uV9i0jkfCxJ6CP1BGoNx-72" style="edgeStyle=orthogonalEdgeStyle;rounded=0;orthogonalLoop=1;jettySize=auto;html=1;" parent="1" target="uV9i0jkfCxJ6CP1BGoNx-34" edge="1">
          <mxGeometry relative="1" as="geometry">
            <mxPoint x="844" y="656" as="targetPoint" />
            <mxPoint x="848" y="600" as="sourcePoint" />
            <Array as="points">
              <mxPoint x="844" y="600" />
            </Array>
          </mxGeometry>
        </mxCell>
        <mxCell id="uV9i0jkfCxJ6CP1BGoNx-73" style="edgeStyle=orthogonalEdgeStyle;rounded=0;orthogonalLoop=1;jettySize=auto;html=1;" parent="1" target="uV9i0jkfCxJ6CP1BGoNx-35" edge="1">
          <mxGeometry relative="1" as="geometry">
            <mxPoint x="854" y="670" as="targetPoint" />
            <mxPoint x="1110" y="600" as="sourcePoint" />
            <Array as="points">
              <mxPoint x="1100" y="600" />
            </Array>
          </mxGeometry>
        </mxCell>
        <mxCell id="uV9i0jkfCxJ6CP1BGoNx-74" style="edgeStyle=orthogonalEdgeStyle;rounded=0;orthogonalLoop=1;jettySize=auto;html=1;" parent="1" target="uV9i0jkfCxJ6CP1BGoNx-36" edge="1">
          <mxGeometry relative="1" as="geometry">
            <mxPoint x="1266" y="680" as="targetPoint" />
            <mxPoint x="1340" y="600" as="sourcePoint" />
            <Array as="points">
              <mxPoint x="1340" y="650" />
              <mxPoint x="1340" y="650" />
            </Array>
          </mxGeometry>
        </mxCell>
        <mxCell id="uV9i0jkfCxJ6CP1BGoNx-75" style="edgeStyle=orthogonalEdgeStyle;rounded=0;orthogonalLoop=1;jettySize=auto;html=1;" parent="1" edge="1">
          <mxGeometry relative="1" as="geometry">
            <mxPoint x="1569.82" y="660" as="targetPoint" />
            <mxPoint x="1569.82" y="600" as="sourcePoint" />
            <Array as="points">
              <mxPoint x="1569.82" y="650" />
              <mxPoint x="1569.82" y="650" />
            </Array>
          </mxGeometry>
        </mxCell>
      </root>
    </mxGraphModel>
  </diagram>
  <diagram id="qfTgDU_RWwjA6DrLjBkW" name="HeThong">
    <mxGraphModel dx="2590" dy="1625" grid="1" gridSize="10" guides="1" tooltips="1" connect="1" arrows="1" fold="1" page="1" pageScale="1" pageWidth="827" pageHeight="1169" math="0" shadow="0">
      <root>
        <mxCell id="0" />
        <mxCell id="1" parent="0" />
        <mxCell id="h4TDAKszkdXSsRSXelpb-33" style="edgeStyle=orthogonalEdgeStyle;rounded=0;orthogonalLoop=1;jettySize=auto;html=1;" edge="1" parent="1" source="h4TDAKszkdXSsRSXelpb-5" target="h4TDAKszkdXSsRSXelpb-8">
          <mxGeometry relative="1" as="geometry">
            <Array as="points">
              <mxPoint x="510" y="575" />
              <mxPoint x="510" y="575" />
            </Array>
          </mxGeometry>
        </mxCell>
        <mxCell id="h4TDAKszkdXSsRSXelpb-36" value="Trả về thông tin &lt;br&gt;hóa đơn cần sửa" style="edgeLabel;html=1;align=center;verticalAlign=middle;resizable=0;points=[];" vertex="1" connectable="0" parent="h4TDAKszkdXSsRSXelpb-33">
          <mxGeometry x="0.0584" y="3" relative="1" as="geometry">
            <mxPoint x="13" y="-125" as="offset" />
          </mxGeometry>
        </mxCell>
        <mxCell id="h4TDAKszkdXSsRSXelpb-40" style="edgeStyle=orthogonalEdgeStyle;rounded=0;orthogonalLoop=1;jettySize=auto;html=1;" edge="1" parent="1" source="h4TDAKszkdXSsRSXelpb-5" target="h4TDAKszkdXSsRSXelpb-9">
          <mxGeometry relative="1" as="geometry">
            <Array as="points">
              <mxPoint x="640" y="605" />
              <mxPoint x="640" y="605" />
            </Array>
          </mxGeometry>
        </mxCell>
        <mxCell id="h4TDAKszkdXSsRSXelpb-41" value="Xác nhận xóa &lt;br&gt;hóa đơn" style="edgeLabel;html=1;align=center;verticalAlign=middle;resizable=0;points=[];" vertex="1" connectable="0" parent="h4TDAKszkdXSsRSXelpb-40">
          <mxGeometry x="0.6195" y="-2" relative="1" as="geometry">
            <mxPoint as="offset" />
          </mxGeometry>
        </mxCell>
        <mxCell id="h4TDAKszkdXSsRSXelpb-43" style="edgeStyle=orthogonalEdgeStyle;rounded=0;orthogonalLoop=1;jettySize=auto;html=1;" edge="1" parent="1" source="h4TDAKszkdXSsRSXelpb-5" target="h4TDAKszkdXSsRSXelpb-10">
          <mxGeometry relative="1" as="geometry">
            <Array as="points">
              <mxPoint x="775" y="525" />
              <mxPoint x="775" y="525" />
            </Array>
          </mxGeometry>
        </mxCell>
        <mxCell id="h4TDAKszkdXSsRSXelpb-44" value="Trả về danh sách&lt;br&gt;&amp;nbsp; hóa đơn có &lt;br&gt;tên khách hàng" style="edgeLabel;html=1;align=center;verticalAlign=middle;resizable=0;points=[];" vertex="1" connectable="0" parent="h4TDAKszkdXSsRSXelpb-43">
          <mxGeometry x="0.4681" y="-1" relative="1" as="geometry">
            <mxPoint x="4" y="-25" as="offset" />
          </mxGeometry>
        </mxCell>
        <mxCell id="h4TDAKszkdXSsRSXelpb-46" style="edgeStyle=orthogonalEdgeStyle;rounded=0;orthogonalLoop=1;jettySize=auto;html=1;" edge="1" parent="1" source="h4TDAKszkdXSsRSXelpb-5" target="h4TDAKszkdXSsRSXelpb-11">
          <mxGeometry relative="1" as="geometry">
            <Array as="points">
              <mxPoint x="910" y="515" />
              <mxPoint x="910" y="515" />
            </Array>
          </mxGeometry>
        </mxCell>
        <mxCell id="h4TDAKszkdXSsRSXelpb-47" value="Trả về thành &lt;br&gt;tiền theo tháng&lt;br&gt;&amp;nbsp;và năm" style="edgeLabel;html=1;align=center;verticalAlign=middle;resizable=0;points=[];" vertex="1" connectable="0" parent="h4TDAKszkdXSsRSXelpb-46">
          <mxGeometry x="0.6043" y="2" relative="1" as="geometry">
            <mxPoint x="12" as="offset" />
          </mxGeometry>
        </mxCell>
        <mxCell id="h4TDAKszkdXSsRSXelpb-49" style="edgeStyle=orthogonalEdgeStyle;rounded=0;orthogonalLoop=1;jettySize=auto;html=1;" edge="1" parent="1" source="h4TDAKszkdXSsRSXelpb-5" target="h4TDAKszkdXSsRSXelpb-12">
          <mxGeometry relative="1" as="geometry">
            <Array as="points">
              <mxPoint x="1060" y="515" />
              <mxPoint x="1060" y="515" />
            </Array>
          </mxGeometry>
        </mxCell>
        <mxCell id="h4TDAKszkdXSsRSXelpb-50" value="Trả về số &lt;br&gt;lượng hóa đơn" style="edgeLabel;html=1;align=center;verticalAlign=middle;resizable=0;points=[];" vertex="1" connectable="0" parent="h4TDAKszkdXSsRSXelpb-49">
          <mxGeometry x="0.6586" y="-2" relative="1" as="geometry">
            <mxPoint as="offset" />
          </mxGeometry>
        </mxCell>
        <mxCell id="h4TDAKszkdXSsRSXelpb-52" style="edgeStyle=orthogonalEdgeStyle;rounded=0;orthogonalLoop=1;jettySize=auto;html=1;" edge="1" parent="1" source="h4TDAKszkdXSsRSXelpb-5" target="h4TDAKszkdXSsRSXelpb-13">
          <mxGeometry relative="1" as="geometry">
            <Array as="points">
              <mxPoint x="1210" y="515" />
              <mxPoint x="1210" y="515" />
            </Array>
          </mxGeometry>
        </mxCell>
        <mxCell id="h4TDAKszkdXSsRSXelpb-53" value="Hoàn tác / làm lại &lt;br&gt;hóa đơn" style="edgeLabel;html=1;align=center;verticalAlign=middle;resizable=0;points=[];" vertex="1" connectable="0" parent="h4TDAKszkdXSsRSXelpb-52">
          <mxGeometry x="0.6603" y="-1" relative="1" as="geometry">
            <mxPoint x="9" as="offset" />
          </mxGeometry>
        </mxCell>
        <mxCell id="h4TDAKszkdXSsRSXelpb-5" value="&lt;font style=&quot;font-size: 16px;&quot;&gt;Hệ thống quản lý hóa đơn&lt;/font&gt;" style="shape=process;whiteSpace=wrap;html=1;backgroundOutline=1;" vertex="1" parent="1">
          <mxGeometry x="100" y="765" width="1350" height="60" as="geometry" />
        </mxCell>
        <mxCell id="h4TDAKszkdXSsRSXelpb-14" style="edgeStyle=orthogonalEdgeStyle;rounded=0;orthogonalLoop=1;jettySize=auto;html=1;" edge="1" parent="1" source="h4TDAKszkdXSsRSXelpb-7" target="h4TDAKszkdXSsRSXelpb-5">
          <mxGeometry relative="1" as="geometry">
            <Array as="points">
              <mxPoint x="360" y="695" />
              <mxPoint x="360" y="695" />
            </Array>
          </mxGeometry>
        </mxCell>
        <mxCell id="h4TDAKszkdXSsRSXelpb-38" value="Gửi thông tin &lt;br&gt;hóa đơn" style="edgeLabel;html=1;align=center;verticalAlign=middle;resizable=0;points=[];" vertex="1" connectable="0" parent="h4TDAKszkdXSsRSXelpb-14">
          <mxGeometry x="0.4267" y="1" relative="1" as="geometry">
            <mxPoint x="-1" y="43" as="offset" />
          </mxGeometry>
        </mxCell>
        <mxCell id="h4TDAKszkdXSsRSXelpb-7" value="Thêm hóa đơn" style="ellipse;whiteSpace=wrap;html=1;aspect=fixed;" vertex="1" parent="1">
          <mxGeometry x="320" y="360" width="80" height="80" as="geometry" />
        </mxCell>
        <mxCell id="h4TDAKszkdXSsRSXelpb-15" style="edgeStyle=orthogonalEdgeStyle;rounded=0;orthogonalLoop=1;jettySize=auto;html=1;" edge="1" parent="1" source="h4TDAKszkdXSsRSXelpb-8" target="h4TDAKszkdXSsRSXelpb-5">
          <mxGeometry relative="1" as="geometry">
            <Array as="points">
              <mxPoint x="470" y="595" />
              <mxPoint x="470" y="595" />
            </Array>
          </mxGeometry>
        </mxCell>
        <mxCell id="h4TDAKszkdXSsRSXelpb-35" value="Yêu cầu thông tin &lt;br&gt;hóa đơn cần sửa" style="edgeLabel;html=1;align=center;verticalAlign=middle;resizable=0;points=[];" vertex="1" connectable="0" parent="h4TDAKszkdXSsRSXelpb-15">
          <mxGeometry x="0.4461" y="-3" relative="1" as="geometry">
            <mxPoint x="-7" y="41" as="offset" />
          </mxGeometry>
        </mxCell>
        <mxCell id="h4TDAKszkdXSsRSXelpb-8" value="Sửa hóa đơn" style="ellipse;whiteSpace=wrap;html=1;aspect=fixed;" vertex="1" parent="1">
          <mxGeometry x="450" y="360" width="80" height="80" as="geometry" />
        </mxCell>
        <mxCell id="h4TDAKszkdXSsRSXelpb-16" style="edgeStyle=orthogonalEdgeStyle;rounded=0;orthogonalLoop=1;jettySize=auto;html=1;" edge="1" parent="1" source="h4TDAKszkdXSsRSXelpb-9" target="h4TDAKszkdXSsRSXelpb-5">
          <mxGeometry relative="1" as="geometry">
            <Array as="points">
              <mxPoint x="600" y="625" />
              <mxPoint x="600" y="625" />
            </Array>
          </mxGeometry>
        </mxCell>
        <mxCell id="h4TDAKszkdXSsRSXelpb-39" value="Gửi yêu cầu xóa" style="edgeLabel;html=1;align=center;verticalAlign=middle;resizable=0;points=[];" vertex="1" connectable="0" parent="h4TDAKszkdXSsRSXelpb-16">
          <mxGeometry x="0.6154" relative="1" as="geometry">
            <mxPoint x="-10" as="offset" />
          </mxGeometry>
        </mxCell>
        <mxCell id="h4TDAKszkdXSsRSXelpb-9" value="Xóa hóa đơn" style="ellipse;whiteSpace=wrap;html=1;aspect=fixed;" vertex="1" parent="1">
          <mxGeometry x="580" y="360" width="80" height="80" as="geometry" />
        </mxCell>
        <mxCell id="h4TDAKszkdXSsRSXelpb-17" style="edgeStyle=orthogonalEdgeStyle;rounded=0;orthogonalLoop=1;jettySize=auto;html=1;" edge="1" parent="1" source="h4TDAKszkdXSsRSXelpb-10" target="h4TDAKszkdXSsRSXelpb-5">
          <mxGeometry relative="1" as="geometry">
            <Array as="points">
              <mxPoint x="730" y="595" />
              <mxPoint x="730" y="595" />
            </Array>
          </mxGeometry>
        </mxCell>
        <mxCell id="h4TDAKszkdXSsRSXelpb-42" value="Gửi tên khách &lt;br&gt;hàng cần tìm" style="edgeLabel;html=1;align=center;verticalAlign=middle;resizable=0;points=[];" vertex="1" connectable="0" parent="h4TDAKszkdXSsRSXelpb-17">
          <mxGeometry x="0.7077" relative="1" as="geometry">
            <mxPoint as="offset" />
          </mxGeometry>
        </mxCell>
        <mxCell id="h4TDAKszkdXSsRSXelpb-10" value="Tìm hóa đơn" style="ellipse;whiteSpace=wrap;html=1;aspect=fixed;" vertex="1" parent="1">
          <mxGeometry x="710" y="360" width="80" height="80" as="geometry" />
        </mxCell>
        <mxCell id="h4TDAKszkdXSsRSXelpb-19" style="edgeStyle=orthogonalEdgeStyle;rounded=0;orthogonalLoop=1;jettySize=auto;html=1;" edge="1" parent="1" source="h4TDAKszkdXSsRSXelpb-11" target="h4TDAKszkdXSsRSXelpb-5">
          <mxGeometry relative="1" as="geometry">
            <Array as="points">
              <mxPoint x="870" y="545" />
              <mxPoint x="870" y="545" />
            </Array>
          </mxGeometry>
        </mxCell>
        <mxCell id="h4TDAKszkdXSsRSXelpb-45" value="Gửi tháng &lt;br&gt;và năm" style="edgeLabel;html=1;align=center;verticalAlign=middle;resizable=0;points=[];" vertex="1" connectable="0" parent="h4TDAKszkdXSsRSXelpb-19">
          <mxGeometry x="0.6769" y="-1" relative="1" as="geometry">
            <mxPoint as="offset" />
          </mxGeometry>
        </mxCell>
        <mxCell id="h4TDAKszkdXSsRSXelpb-11" value="Tính trung bình thành tiền trong 1 tháng" style="ellipse;whiteSpace=wrap;html=1;aspect=fixed;" vertex="1" parent="1">
          <mxGeometry x="850" y="360" width="80" height="80" as="geometry" />
        </mxCell>
        <mxCell id="h4TDAKszkdXSsRSXelpb-20" style="edgeStyle=orthogonalEdgeStyle;rounded=0;orthogonalLoop=1;jettySize=auto;html=1;" edge="1" parent="1" source="h4TDAKszkdXSsRSXelpb-12" target="h4TDAKszkdXSsRSXelpb-5">
          <mxGeometry relative="1" as="geometry">
            <Array as="points">
              <mxPoint x="1010" y="605" />
              <mxPoint x="1010" y="605" />
            </Array>
          </mxGeometry>
        </mxCell>
        <mxCell id="h4TDAKszkdXSsRSXelpb-48" value="Gửi loại hóa đơn,&lt;br&gt;tháng và năm" style="edgeLabel;html=1;align=center;verticalAlign=middle;resizable=0;points=[];" vertex="1" connectable="0" parent="h4TDAKszkdXSsRSXelpb-20">
          <mxGeometry x="0.6771" y="2" relative="1" as="geometry">
            <mxPoint as="offset" />
          </mxGeometry>
        </mxCell>
        <mxCell id="h4TDAKszkdXSsRSXelpb-12" value="Tính tổng số lượng hóa đơn theo từng loại" style="ellipse;whiteSpace=wrap;html=1;aspect=fixed;" vertex="1" parent="1">
          <mxGeometry x="990" y="355" width="90" height="90" as="geometry" />
        </mxCell>
        <mxCell id="h4TDAKszkdXSsRSXelpb-21" style="edgeStyle=orthogonalEdgeStyle;rounded=0;orthogonalLoop=1;jettySize=auto;html=1;" edge="1" parent="1" source="h4TDAKszkdXSsRSXelpb-13" target="h4TDAKszkdXSsRSXelpb-5">
          <mxGeometry relative="1" as="geometry">
            <Array as="points">
              <mxPoint x="1170" y="595" />
              <mxPoint x="1170" y="595" />
            </Array>
          </mxGeometry>
        </mxCell>
        <mxCell id="h4TDAKszkdXSsRSXelpb-51" value="Gửi yêu cầu &lt;br&gt;hoàn tác / làm lại" style="edgeLabel;html=1;align=center;verticalAlign=middle;resizable=0;points=[];" vertex="1" connectable="0" parent="h4TDAKszkdXSsRSXelpb-21">
          <mxGeometry x="0.6161" y="-4" relative="1" as="geometry">
            <mxPoint as="offset" />
          </mxGeometry>
        </mxCell>
        <mxCell id="h4TDAKszkdXSsRSXelpb-13" value="Undo/Redo" style="ellipse;whiteSpace=wrap;html=1;aspect=fixed;" vertex="1" parent="1">
          <mxGeometry x="1150" y="360" width="80" height="80" as="geometry" />
        </mxCell>
        <mxCell id="h4TDAKszkdXSsRSXelpb-23" style="edgeStyle=orthogonalEdgeStyle;rounded=0;orthogonalLoop=1;jettySize=auto;html=1;" edge="1" parent="1" source="h4TDAKszkdXSsRSXelpb-22" target="h4TDAKszkdXSsRSXelpb-13">
          <mxGeometry relative="1" as="geometry">
            <mxPoint x="1220" y="270" as="targetPoint" />
          </mxGeometry>
        </mxCell>
        <mxCell id="h4TDAKszkdXSsRSXelpb-25" style="edgeStyle=orthogonalEdgeStyle;rounded=0;orthogonalLoop=1;jettySize=auto;html=1;" edge="1" parent="1" source="h4TDAKszkdXSsRSXelpb-22" target="h4TDAKszkdXSsRSXelpb-8">
          <mxGeometry relative="1" as="geometry" />
        </mxCell>
        <mxCell id="h4TDAKszkdXSsRSXelpb-26" style="edgeStyle=orthogonalEdgeStyle;rounded=0;orthogonalLoop=1;jettySize=auto;html=1;" edge="1" parent="1" source="h4TDAKszkdXSsRSXelpb-22" target="h4TDAKszkdXSsRSXelpb-9">
          <mxGeometry relative="1" as="geometry" />
        </mxCell>
        <mxCell id="h4TDAKszkdXSsRSXelpb-27" style="edgeStyle=orthogonalEdgeStyle;rounded=0;orthogonalLoop=1;jettySize=auto;html=1;" edge="1" parent="1" source="h4TDAKszkdXSsRSXelpb-22" target="h4TDAKszkdXSsRSXelpb-10">
          <mxGeometry relative="1" as="geometry" />
        </mxCell>
        <mxCell id="h4TDAKszkdXSsRSXelpb-28" style="edgeStyle=orthogonalEdgeStyle;rounded=0;orthogonalLoop=1;jettySize=auto;html=1;" edge="1" parent="1" source="h4TDAKszkdXSsRSXelpb-22" target="h4TDAKszkdXSsRSXelpb-11">
          <mxGeometry relative="1" as="geometry" />
        </mxCell>
        <mxCell id="h4TDAKszkdXSsRSXelpb-29" style="edgeStyle=orthogonalEdgeStyle;rounded=0;orthogonalLoop=1;jettySize=auto;html=1;" edge="1" parent="1" source="h4TDAKszkdXSsRSXelpb-22" target="h4TDAKszkdXSsRSXelpb-12">
          <mxGeometry relative="1" as="geometry" />
        </mxCell>
        <mxCell id="h4TDAKszkdXSsRSXelpb-30" style="edgeStyle=orthogonalEdgeStyle;rounded=0;orthogonalLoop=1;jettySize=auto;html=1;" edge="1" parent="1" source="h4TDAKszkdXSsRSXelpb-22" target="h4TDAKszkdXSsRSXelpb-7">
          <mxGeometry relative="1" as="geometry" />
        </mxCell>
        <mxCell id="h4TDAKszkdXSsRSXelpb-22" value="Actor" style="shape=umlActor;verticalLabelPosition=bottom;verticalAlign=top;html=1;outlineConnect=0;" vertex="1" parent="1">
          <mxGeometry x="110" y="240" width="30" height="60" as="geometry" />
        </mxCell>
      </root>
    </mxGraphModel>
  </diagram>
</mxfile>
